solid OpenSCAD_Model
  facet normal 0 1 -0
    outer loop
      vertex 21.818 33.9021 0
      vertex -21.818 33.9021 12.4
      vertex 21.818 33.9021 12.4
    endloop
  endfacet
  facet normal 0 1 0
    outer loop
      vertex -21.818 33.9021 12.4
      vertex 21.818 33.9021 0
      vertex -21.818 33.9021 0
    endloop
  endfacet
  facet normal -0.951055 0.309023 0
    outer loop
      vertex -23.2 32 0
      vertex -22.818 33.1756 12.4
      vertex -22.818 33.1756 0
    endloop
  endfacet
  facet normal -0.951055 0.309023 0
    outer loop
      vertex -22.818 33.1756 12.4
      vertex -23.2 32 0
      vertex -23.2 32 12.4
    endloop
  endfacet
  facet normal 0.58778 -0.809021 0
    outer loop
      vertex 21.818 -33.9021 0
      vertex 22.818 -33.1756 12.4
      vertex 21.818 -33.9021 12.4
    endloop
  endfacet
  facet normal 0.58778 -0.809021 0
    outer loop
      vertex 22.818 -33.1756 12.4
      vertex 21.818 -33.9021 0
      vertex 22.818 -33.1756 0
    endloop
  endfacet
  facet normal -0.58778 0.809021 0
    outer loop
      vertex -21.818 33.9021 0
      vertex -22.818 33.1756 12.4
      vertex -21.818 33.9021 12.4
    endloop
  endfacet
  facet normal -0.58778 0.809021 0
    outer loop
      vertex -22.818 33.1756 12.4
      vertex -21.818 33.9021 0
      vertex -22.818 33.1756 0
    endloop
  endfacet
  facet normal 0 0 -1
    outer loop
      vertex 21.818 -33.9021 0
      vertex 23.2 -32 0
      vertex 22.818 -33.1756 0
    endloop
  endfacet
  facet normal 0 0 -1
    outer loop
      vertex 23.2 -32 0
      vertex -23.2 -32 0
      vertex 23.2 32 0
    endloop
  endfacet
  facet normal -0 0 -1
    outer loop
      vertex 23.2 -32 0
      vertex 21.818 -33.9021 0
      vertex -23.2 -32 0
    endloop
  endfacet
  facet normal 0 0 -1
    outer loop
      vertex -23.2 32 0
      vertex 23.2 32 0
      vertex -23.2 -32 0
    endloop
  endfacet
  facet normal 0 0 -1
    outer loop
      vertex -23.2 -32 0
      vertex 21.818 -33.9021 0
      vertex -21.818 -33.9021 0
    endloop
  endfacet
  facet normal 0 -0 -1
    outer loop
      vertex 21.818 33.9021 0
      vertex 23.2 32 0
      vertex -23.2 32 0
    endloop
  endfacet
  facet normal 0 0 -1
    outer loop
      vertex -23.2 -32 0
      vertex -21.818 -33.9021 0
      vertex -22.818 -33.1756 0
    endloop
  endfacet
  facet normal 0 0 -1
    outer loop
      vertex 23.2 32 0
      vertex 21.818 33.9021 0
      vertex 22.818 33.1756 0
    endloop
  endfacet
  facet normal -0 0 -1
    outer loop
      vertex 21.818 33.9021 0
      vertex -23.2 32 0
      vertex -21.818 33.9021 0
    endloop
  endfacet
  facet normal 0 0 -1
    outer loop
      vertex -21.818 33.9021 0
      vertex -23.2 32 0
      vertex -22.818 33.1756 0
    endloop
  endfacet
  facet normal 0.951055 0.309023 0
    outer loop
      vertex 23.2 32 12.4
      vertex 22.818 33.1756 0
      vertex 22.818 33.1756 12.4
    endloop
  endfacet
  facet normal 0.951055 0.309023 0
    outer loop
      vertex 22.818 33.1756 0
      vertex 23.2 32 12.4
      vertex 23.2 32 0
    endloop
  endfacet
  facet normal 0.951055 -0.309023 0
    outer loop
      vertex 22.818 -33.1756 12.4
      vertex 23.2 -32 0
      vertex 23.2 -32 12.4
    endloop
  endfacet
  facet normal 0.951055 -0.309023 0
    outer loop
      vertex 23.2 -32 0
      vertex 22.818 -33.1756 12.4
      vertex 22.818 -33.1756 0
    endloop
  endfacet
  facet normal 0.58778 0.809021 -0
    outer loop
      vertex 22.818 33.1756 0
      vertex 21.818 33.9021 12.4
      vertex 22.818 33.1756 12.4
    endloop
  endfacet
  facet normal 0.58778 0.809021 0
    outer loop
      vertex 21.818 33.9021 12.4
      vertex 22.818 33.1756 0
      vertex 21.818 33.9021 0
    endloop
  endfacet
  facet normal -1 0 0
    outer loop
      vertex -23.2 -32 0
      vertex -23.2 32 12.4
      vertex -23.2 32 0
    endloop
  endfacet
  facet normal -1 -0 0
    outer loop
      vertex -23.2 32 12.4
      vertex -23.2 -32 0
      vertex -23.2 -32 12.4
    endloop
  endfacet
  facet normal 1 -0 0
    outer loop
      vertex 23.2 -32 12.4
      vertex 23.2 32 0
      vertex 23.2 32 12.4
    endloop
  endfacet
  facet normal 1 0 0
    outer loop
      vertex 23.2 32 0
      vertex 23.2 -32 12.4
      vertex 23.2 -32 0
    endloop
  endfacet
  facet normal -0.58778 -0.809021 0
    outer loop
      vertex -22.818 -33.1756 0
      vertex -21.818 -33.9021 12.4
      vertex -22.818 -33.1756 12.4
    endloop
  endfacet
  facet normal -0.58778 -0.809021 -0
    outer loop
      vertex -21.818 -33.9021 12.4
      vertex -22.818 -33.1756 0
      vertex -21.818 -33.9021 0
    endloop
  endfacet
  facet normal -0.951055 -0.309023 0
    outer loop
      vertex -22.818 -33.1756 0
      vertex -23.2 -32 12.4
      vertex -23.2 -32 0
    endloop
  endfacet
  facet normal -0.951055 -0.309023 0
    outer loop
      vertex -23.2 -32 12.4
      vertex -22.818 -33.1756 0
      vertex -22.818 -33.1756 12.4
    endloop
  endfacet
  facet normal 0 -1 0
    outer loop
      vertex -21.818 -33.9021 0
      vertex 21.818 -33.9021 12.4
      vertex -21.818 -33.9021 12.4
    endloop
  endfacet
  facet normal 0 -1 -0
    outer loop
      vertex 21.818 -33.9021 12.4
      vertex -21.818 -33.9021 0
      vertex 21.818 -33.9021 0
    endloop
  endfacet
  facet normal -0 0 1
    outer loop
      vertex -20.2 31 1
      vertex 20.2 -31 1
      vertex 20.2 31 1
    endloop
  endfacet
  facet normal 0 0 1
    outer loop
      vertex 20.2 -31 1
      vertex -20.2 31 1
      vertex -20.2 -31 1
    endloop
  endfacet
  facet normal -1 0 0
    outer loop
      vertex 20.2 -31 1
      vertex 20.2 31 10.4
      vertex 20.2 31 1
    endloop
  endfacet
  facet normal -1 -0 0
    outer loop
      vertex 20.2 31 10.4
      vertex 20.2 -31 1
      vertex 20.2 -31 10.4
    endloop
  endfacet
  facet normal 1 -0 0
    outer loop
      vertex -20.2 -31 10.4
      vertex -20.2 31 1
      vertex -20.2 31 10.4
    endloop
  endfacet
  facet normal 1 0 0
    outer loop
      vertex -20.2 31 1
      vertex -20.2 -31 10.4
      vertex -20.2 -31 1
    endloop
  endfacet
  facet normal 0 1 -0
    outer loop
      vertex 20.2 -31 1
      vertex -20.2 -31 10.4
      vertex 20.2 -31 10.4
    endloop
  endfacet
  facet normal 0 1 0
    outer loop
      vertex -20.2 -31 10.4
      vertex 20.2 -31 1
      vertex -20.2 -31 1
    endloop
  endfacet
  facet normal 0 -1 0
    outer loop
      vertex -20.2 31 1
      vertex 20.2 31 10.4
      vertex -20.2 31 10.4
    endloop
  endfacet
  facet normal 0 -1 -0
    outer loop
      vertex 20.2 31 10.4
      vertex -20.2 31 1
      vertex 20.2 31 1
    endloop
  endfacet
  facet normal -0 0 1
    outer loop
      vertex 21.3 32.1 12.4
      vertex 23.2 32 12.4
      vertex 22.818 33.1756 12.4
    endloop
  endfacet
  facet normal 0 0 1
    outer loop
      vertex 23.2 32 12.4
      vertex 21.3 32.1 12.4
      vertex 23.2 -32 12.4
    endloop
  endfacet
  facet normal 0 0 1
    outer loop
      vertex 21.3 32.1 12.4
      vertex 22.818 33.1756 12.4
      vertex 21.818 33.9021 12.4
    endloop
  endfacet
  facet normal 0 0 1
    outer loop
      vertex 21.3 -32.1 12.4
      vertex 23.2 -32 12.4
      vertex 21.3 32.1 12.4
    endloop
  endfacet
  facet normal 0 0 1
    outer loop
      vertex 23.2 -32 12.4
      vertex 21.3 -32.1 12.4
      vertex 22.818 -33.1756 12.4
    endloop
  endfacet
  facet normal 0 0 1
    outer loop
      vertex 21.818 33.9021 12.4
      vertex -21.3 32.1 12.4
      vertex 21.3 32.1 12.4
    endloop
  endfacet
  facet normal -0 0 1
    outer loop
      vertex -22.818 33.1756 12.4
      vertex -21.3 32.1 12.4
      vertex -21.818 33.9021 12.4
    endloop
  endfacet
  facet normal -0 0 1
    outer loop
      vertex -21.818 33.9021 12.4
      vertex -21.3 32.1 12.4
      vertex 21.818 33.9021 12.4
    endloop
  endfacet
  facet normal 0 0 1
    outer loop
      vertex 22.818 -33.1756 12.4
      vertex 21.3 -32.1 12.4
      vertex 21.818 -33.9021 12.4
    endloop
  endfacet
  facet normal -0 0 1
    outer loop
      vertex -21.3 -32.1 12.4
      vertex 21.818 -33.9021 12.4
      vertex 21.3 -32.1 12.4
    endloop
  endfacet
  facet normal 0 0 1
    outer loop
      vertex -21.3 -32.1 12.4
      vertex -21.818 -33.9021 12.4
      vertex 21.818 -33.9021 12.4
    endloop
  endfacet
  facet normal 0 0 1
    outer loop
      vertex -21.3 32.1 12.4
      vertex -23.2 32 12.4
      vertex -21.3 -32.1 12.4
    endloop
  endfacet
  facet normal 0 0 1
    outer loop
      vertex -21.3 32.1 12.4
      vertex -22.818 33.1756 12.4
      vertex -23.2 32 12.4
    endloop
  endfacet
  facet normal -0 0 1
    outer loop
      vertex -23.2 -32 12.4
      vertex -21.3 -32.1 12.4
      vertex -23.2 32 12.4
    endloop
  endfacet
  facet normal 0 -0 1
    outer loop
      vertex -22.818 -33.1756 12.4
      vertex -21.3 -32.1 12.4
      vertex -23.2 -32 12.4
    endloop
  endfacet
  facet normal 0 0 1
    outer loop
      vertex -21.3 -32.1 12.4
      vertex -22.818 -33.1756 12.4
      vertex -21.818 -33.9021 12.4
    endloop
  endfacet
  facet normal 0 0 1
    outer loop
      vertex 21.3 32.1 10.4
      vertex 20.2 31 10.4
      vertex 21.3 -32.1 10.4
    endloop
  endfacet
  facet normal 0 0 1
    outer loop
      vertex 21.3 32.1 10.4
      vertex -20.2 31 10.4
      vertex 20.2 31 10.4
    endloop
  endfacet
  facet normal 0 0 1
    outer loop
      vertex -20.2 31 10.4
      vertex -21.3 32.1 10.4
      vertex -20.2 -31 10.4
    endloop
  endfacet
  facet normal -0 0 1
    outer loop
      vertex -21.3 32.1 10.4
      vertex -20.2 31 10.4
      vertex 21.3 32.1 10.4
    endloop
  endfacet
  facet normal -0 0 1
    outer loop
      vertex 20.2 -31 10.4
      vertex 21.3 -32.1 10.4
      vertex 20.2 31 10.4
    endloop
  endfacet
  facet normal -0 0 1
    outer loop
      vertex -20.2 -31 10.4
      vertex 21.3 -32.1 10.4
      vertex 20.2 -31 10.4
    endloop
  endfacet
  facet normal 0 0 1
    outer loop
      vertex -20.2 -31 10.4
      vertex -21.3 -32.1 10.4
      vertex 21.3 -32.1 10.4
    endloop
  endfacet
  facet normal 0 0 1
    outer loop
      vertex -21.3 -32.1 10.4
      vertex -20.2 -31 10.4
      vertex -21.3 32.1 10.4
    endloop
  endfacet
  facet normal -1 0 0
    outer loop
      vertex 21.3 -32.1 10.4
      vertex 21.3 32.1 12.4
      vertex 21.3 32.1 10.4
    endloop
  endfacet
  facet normal -1 -0 0
    outer loop
      vertex 21.3 32.1 12.4
      vertex 21.3 -32.1 10.4
      vertex 21.3 -32.1 12.4
    endloop
  endfacet
  facet normal 1 -0 0
    outer loop
      vertex -21.3 -32.1 12.4
      vertex -21.3 32.1 10.4
      vertex -21.3 32.1 12.4
    endloop
  endfacet
  facet normal 1 0 0
    outer loop
      vertex -21.3 32.1 10.4
      vertex -21.3 -32.1 12.4
      vertex -21.3 -32.1 10.4
    endloop
  endfacet
  facet normal 0 1 -0
    outer loop
      vertex 21.3 -32.1 10.4
      vertex -21.3 -32.1 12.4
      vertex 21.3 -32.1 12.4
    endloop
  endfacet
  facet normal 0 1 0
    outer loop
      vertex -21.3 -32.1 12.4
      vertex 21.3 -32.1 10.4
      vertex -21.3 -32.1 10.4
    endloop
  endfacet
  facet normal 0 -1 0
    outer loop
      vertex -21.3 32.1 10.4
      vertex 21.3 32.1 12.4
      vertex -21.3 32.1 12.4
    endloop
  endfacet
  facet normal 0 -1 -0
    outer loop
      vertex 21.3 32.1 12.4
      vertex -21.3 32.1 10.4
      vertex 21.3 32.1 10.4
    endloop
  endfacet
endsolid OpenSCAD_Model
